<?xml version="1.0" standalone="no"?>
<!DOCTYPE svg PUBLIC "-//W3C//DTD SVG 20010904//EN"
 "http://www.w3.org/TR/2001/REC-SVG-20010904/DTD/svg10.dtd">
<svg version="1.0" xmlns="http://www.w3.org/2000/svg"
 width="260.000000pt" height="260.000000pt" viewBox="0 0 260.000000 260.000000"
 preserveAspectRatio="xMidYMid meet">
<metadata>
Created by potrace 1.11, written by Peter Selinger 2001-2013
</metadata>
<g transform="translate(0.000000,260.000000) scale(0.100000,-0.100000)"
fill="#000000" stroke="none">
<path d="M1249 2576 c-2 -3 -30 -6 -62 -7 -54 -2 -57 -4 -57 -28 0 -53 10 -70
37 -65 14 3 45 6 69 7 24 1 45 6 45 12 8 61 -9 104 -32 81z"/>
<path d="M1438 2563 c-3 -4 -5 -24 -7 -45 -3 -41 0 -42 86 -53 57 -7 60 -5 65
49 3 27 -1 30 -32 37 -83 16 -109 19 -112 12z"/>
<path d="M895 2508 c-33 -11 -62 -22 -64 -24 -3 -3 29 -85 33 -84 52 14 130
50 128 59 -4 19 -10 55 -11 64 -1 11 -21 8 -86 -15z"/>
<path d="M1731 2477 c-24 -64 -26 -62 45 -91 37 -15 68 -26 69 -24 5 6 35 67
35 72 0 7 -28 22 -89 46 l-52 20 -8 -23z"/>
<path d="M628 2381 c-31 -20 -59 -39 -63 -43 -4 -3 4 -22 17 -42 l24 -35 62
37 c34 20 62 39 62 42 0 3 -10 21 -23 41 l-22 37 -57 -37z"/>
<path d="M1995 2327 c-11 -18 -21 -35 -23 -38 -5 -10 108 -90 118 -84 5 3 18
18 29 34 l21 29 -53 39 c-28 22 -57 42 -62 45 -6 4 -19 -8 -30 -25z"/>
<path d="M380 2178 l-50 -52 27 -28 c15 -15 31 -28 36 -28 5 0 30 22 56 49
l47 49 -27 31 c-14 17 -30 31 -33 31 -4 0 -29 -23 -56 -52z"/>
<path d="M2216 2121 l-28 -29 44 -54 45 -55 34 24 c19 13 33 29 31 35 -4 16
-82 108 -91 108 -4 0 -20 -13 -35 -29z"/>
<path d="M196 1934 c-36 -62 -37 -66 -19 -80 49 -37 62 -31 106 48 l27 47 -27
19 c-16 10 -33 21 -39 25 -6 3 -27 -23 -48 -59z"/>
<path d="M1943 1902 c-601 -780 -766 -992 -773 -990 -6 2 -149 133 -260 238
-103 98 -270 253 -295 275 l-30 26 -69 -72 -68 -73 53 -49 c30 -27 110 -102
178 -166 68 -64 132 -123 141 -131 10 -8 75 -69 146 -136 205 -192 229 -214
234 -213 3 0 86 106 185 235 214 280 262 343 548 713 120 156 220 288 222 295
3 6 -12 23 -33 37 -20 15 -55 41 -78 58 l-41 31 -60 -78z"/>
<path d="M2389 1880 l-37 -19 30 -63 c17 -35 32 -64 33 -66 2 -2 21 5 43 15
l39 18 -30 68 c-17 37 -34 67 -37 67 -3 -1 -21 -10 -41 -20z"/>
<path d="M94 1707 c-2 -7 -13 -41 -23 -74 l-19 -61 42 -11 c22 -5 44 -7 47 -3
12 14 39 126 31 133 -4 3 -22 11 -40 17 -26 9 -34 8 -38 -1z"/>
<path d="M2490 1601 c-26 -7 -28 -17 -17 -76 3 -16 6 -40 6 -53 1 -21 4 -23
39 -18 20 3 42 5 49 6 8 0 9 9 3 30 -5 17 -9 33 -9 35 1 3 -2 23 -6 45 -7 42
-14 45 -65 31z"/>
<path d="M29 1387 c-1 -18 -2 -48 -3 -67 -3 -54 2 -59 47 -57 l41 3 3 72 c3
63 1 72 -14 73 -10 0 -30 2 -45 4 -25 3 -28 1 -29 -28z"/>
<path d="M2502 1296 c-12 -14 -16 -136 -5 -136 4 -1 25 -3 46 -6 l37 -6 1 39
c4 126 7 116 -34 119 -20 1 -41 -4 -45 -10z"/>
<path d="M62 1112 c-22 -3 -23 -7 -17 -40 20 -114 26 -121 82 -102 l29 11 -14
69 c-16 74 -13 72 -80 62z"/>
<path d="M2443 951 l-20 -70 40 -16 c22 -9 41 -15 42 -13 2 2 12 34 24 72 22
73 19 85 -21 86 -9 0 -23 2 -30 5 -11 4 -20 -13 -35 -64z"/>
<path d="M158 824 l-36 -15 25 -57 c37 -84 39 -86 82 -61 l37 21 -30 64 c-17
35 -33 64 -36 63 -3 0 -21 -7 -42 -15z"/>
<path d="M2349 728 c-6 -13 -23 -42 -36 -64 l-24 -42 34 -21 c19 -12 37 -21
39 -21 7 0 51 69 66 102 11 27 10 29 -28 48 l-39 20 -12 -22z"/>
<path d="M312 567 c-17 -12 -32 -27 -32 -33 0 -5 21 -34 48 -63 l47 -52 28 26
c15 14 27 31 27 38 -1 7 -20 33 -43 59 l-43 48 -32 -23z"/>
<path d="M2150 459 c-25 -28 -46 -51 -47 -52 -1 -1 11 -17 26 -35 l27 -33 52
50 c28 27 52 54 52 59 0 8 -56 63 -62 61 -2 0 -23 -23 -48 -50z"/>
<path d="M514 345 c-30 -40 -34 -33 53 -95 l42 -30 25 36 25 37 -22 17 c-12 9
-38 29 -59 44 l-36 27 -28 -36z"/>
<path d="M1927 283 c-31 -20 -57 -42 -57 -49 0 -8 8 -27 18 -43 l18 -30 62 39
c34 22 62 42 62 45 0 3 -10 21 -23 40 l-23 33 -57 -35z"/>
<path d="M766 184 c-9 -21 -13 -40 -9 -44 13 -11 111 -50 126 -50 8 0 17 10
20 23 2 12 7 29 11 38 5 12 -7 22 -56 42 -35 15 -66 27 -69 27 -3 0 -13 -16
-23 -36z"/>
<path d="M1649 158 l-57 -20 10 -41 c5 -23 10 -43 12 -44 4 -4 129 38 139 47
11 9 -21 80 -36 79 -6 -1 -37 -11 -68 -21z"/>
<path d="M1056 113 c-13 -43 -14 -73 -3 -74 7 0 21 -2 32 -4 11 -3 40 -6 65
-7 l45 -3 3 43 c3 35 0 42 -15 43 -10 0 -25 2 -33 4 -83 17 -88 17 -94 -2z"/>
<path d="M1309 106 c-1 -1 -2 -22 -3 -47 l-2 -46 70 4 c39 2 75 8 79 12 5 5 5
25 2 45 l-7 37 -69 -2 c-38 -1 -69 -2 -70 -3z"/>
</g>
</svg>
